<svg xmlns="http://www.w3.org/2000/svg" viewBox="0 0 60 55" width="300"><path d="M64.881 1.14c-.406.627-1.2 2.381-1.766 3.899-.565 1.518-1.272 3.245-1.571 3.839a17.193 17.193 0 0 0-.913 2.329c-.204.687-.883 2.414-1.509 3.839-1.376 3.131-1.591 5.253-.959 9.496.47 3.158.477 5.009.033 9.581-.482 4.965-.55 5.135-2.824 7.079-2.898 2.478-2.965 2.483-3.623.247-.598-2.034-1.947-4.906-2.809-5.982-.39-.487-.71-1.153-.71-1.48 0-.899-2.227-3.243-3.068-3.23-.358.005-.97-.116-1.361-.27-4.162-1.638-8.998 1.218-9.007 5.32 0 .425-.203.787-.577 1.032-.917.601-1.779 2.11-2.568 4.496-.403 1.219-.932 2.648-1.177 3.176s-.628 1.602-.853 2.388c-.224.785-.555 1.576-.736 1.757-.181.18-.329.548-.329.817 0 .269-.396 1.26-.881 2.202a737.3 737.3 0 0 0-1.232 2.405c-.547 1.08-1.231 3.935-1.402 5.856-.086.961-.248 1.804-.36 1.874-.112.069-.204.444-.204.833 0 .389-.319 1.975-.709 3.525-.39 1.55-.936 4.16-1.213 5.801-.619 3.668-1.057 4.942-2.575 7.497-2.174 3.66-5.084 8.231-5.548 8.716-.614.642-1.233 1.901-1.233 2.508 0 .27-.207.7-.461.954-.576.575-.923 1.213-1.067 1.96-.061.318-.808 2.143-1.66 4.056-1.666 3.742-3.22 7.746-3.449 8.891-.078.389-.231.708-.341.708-.322 0-1.39 3.675-1.565 5.385-.089.865-.245 1.573-.347 1.573-.102 0-.259.432-.348.959-.089.527-.26 1.019-.381 1.094-.12.074-.219.507-.219.961 0 .454-.108.825-.24.825s-.24.211-.24.469c0 .257-.162 1.09-.36 1.85-.197.76-.359 1.737-.359 2.171 0 .469-.195.984-.48 1.269-.374.373-.48.8-.48 1.92 0 .896-.101 1.44-.267 1.44-.173 0-.213.285-.113.817.097.517.054.851-.115.907-.623.208-1.082 15.552-.465 15.552.132 0 .24-.216.24-.48s.132-.453.294-.42c.162.033.331-.176.375-.464.055-.362.31-.574.824-.687 1.88-.413 3.592-3.112 2.789-4.397-.231-.371-.135-.628.584-1.57 1.219-1.597 1.32-2.299.522-3.659-.838-1.43-.574-2.936.875-5.006.547-.78 1.047-1.832 1.161-2.441.136-.732.43-1.274.925-1.711.621-.548.742-.851.841-2.095a7.643 7.643 0 0 1 .776-2.76c.655-1.292.657-1.316.267-2.416-.629-1.772-.523-2.36.715-3.946 1.366-1.75 1.922-2.997 2.493-5.594.518-2.353 1.452-4.357 3-6.436.903-1.214 1.148-1.763 1.316-2.956.334-2.363 1.932-3.991 3.303-3.366 1.19.542 1.261.423 1.112-1.845-.197-2.977.563-4.528 2.524-5.156 3.498-1.12 5.703-7.241 4.432-12.301-.825-3.281 2.029-5.41 5.49-4.096 2.019.766 2.942.796 3.31.107.463-.865-.367-1.678-2.382-2.332-2.165-.703-2.441-1.093-2.7-3.828-.518-5.466-.335-6.282 1.516-6.781.968-.26 1.868-1.334 1.87-2.23.002-1.011.79-2.103 1.936-2.684 1.471-.745 1.566-1.11.937-3.619-.615-2.457-.512-3.638.454-5.16 3.23-5.092 6.141-4.453 6.144 1.349.002 2.618-.211 3.267-1.236 3.767-.954.465-1.234 1.542-.571 2.197.486.48.537.487.76.095.469-.825 2.476-.172 6.453 2.099 1.263.721 2.616 1.363 3.008 1.425.391.063 1.103.176 1.58.25.621.096 1.373.582 2.64 1.705 3.216 2.852 7.691 4.584 10.292 3.984.678-.157 2.082-.285 3.119-.285 3.075 0 3.536-.379 2.748-2.263-.202-.486-.475-1.443-.604-2.128-.131-.687-.598-1.789-1.042-2.459-1.056-1.59-1.824-3.11-1.824-3.61 0-1.084 3.977.57 4.906 2.041 1.327 2.103 2.73.611 1.568-1.668-.375-.735-.474-1.352-.438-2.729.064-2.492-.611-3.383-2.917-3.855-.462-.094-1.65-.607-2.639-1.138-.99-.532-2.336-1.142-2.991-1.357-1.163-.381-1.208-.432-1.937-2.19a95.311 95.311 0 0 0-1.874-4.121c-1.262-2.599-1.549-4.157-.766-4.157.527 0 .75.374 1.837 3.083 2.152 5.361 6.554 4.59 4.647-.814-.2-.566-.565-2.173-.812-3.569-.247-1.397-.723-3.187-1.057-3.979-.334-.792-.884-2.088-1.221-2.88-1.135-2.661-.663-3.686 1.174-2.553 1.869 1.153 2.516 2.399 2.518 4.85.005 4.349 2.774 6.67 7 5.869 1.266-.241 3.362-.367 6.073-.367h4.14l.666.66c1.314 1.301 1.795 3.873.88 4.702-.646.584-.854.501-1.466-.588-2.096-3.729-4.908-5.058-6.244-2.951-2.557 4.033-.418 8.518 3.7 7.756 1.066-.197 1.433-.16 2.36.238 2.639 1.131 6.213 1.282 7.192.304l.515-.516-.53-1.09c-1.029-2.119-.761-2.363 3.67-3.342 4.499-.993 5.152-1.247 6.31-2.456l1.032-1.076 2.623.17c3.811.247 4.523-.386 3.347-2.977-.942-2.076-.365-2.446 2.252-1.445 1.621.621 2.399.475 3.032-.566.627-1.03 4.115-1.692 6.859-1.301 1.421.203 1.863.178 2.694-.155.852-.341 1.271-.36 2.939-.136 2.523.34 5.072-.019 7.078-.997 2.331-1.135 4.468-.94 6.26.571 1.042.879 1.721.801 3.515-.402 2.369-1.588 2.827-1.722 5.928-1.722 4.816 0 6.937 1.496 10.209 7.199.378.66 1.247 1.955 1.931 2.879 2.46 3.326 2.596 4.138.841 5.027-2.613 1.324-2.893 3.252-.768 5.273l.738.702-1.108 2.057c-1.934 3.59-3.523 4.8-5.506 4.194-.648-.198-2.172-.446-3.387-.552-1.98-.171-2.34-.28-3.479-1.052-.699-.474-2.172-1.204-3.275-1.623-1.561-.594-2.355-1.08-3.586-2.196-.87-.788-2.305-1.797-3.19-2.243-2.21-1.113-2.617-1.687-2.617-3.687 0-2.613-.845-3.246-2.759-2.067-2.148 1.323-3.974.334-3.127-1.693.473-1.133 1.566-1.587 3.195-1.329 1.522.24 1.747.107 2.696-1.589.425-.76 1.121-1.813 1.546-2.341 1.386-1.719 1.666-2.66.966-3.242-.594-.492-2.34.293-2.685 1.207-.638 1.688-4.496 2.567-7.306 1.664-2.028-.653-2.25-.568-3.065 1.171-.32.682-.671 1.24-.781 1.24-.11 0-1.384.798-2.831 1.774-4.213 2.841-7.853 3.905-11.13 3.253l-1.558-.309-1.357 1.24c-.746.682-1.466 1.24-1.599 1.24-.134 0-.955.591-1.825 1.314-.871.722-2.305 1.692-3.188 2.156-2.965 1.558-7.652 5.504-12.096 10.183a381.04 381.04 0 0 1-4.946 5.039c-4.767 4.773-6.13 6.903-5.409 8.458.147.318-.053.474-1.023.796-.938.311-1.483.72-2.451 1.837-1.208 1.395-2.644 2.371-3.488 2.371-.227 0-1.187.592-2.132 1.317-.946.724-2.249 1.548-2.896 1.83-1.462.639-1.259.404-1.885 2.179-.874 2.478-2.979 5.492-4.597 6.581-2.927 1.971-3.704 4.268-2.179 6.438 1.109 1.578.871 1.931-1.307 1.931-5.014 0-3.067 3.602 2.74 5.07 4.491 1.135 10.4 6.567 7.143 6.567-1.333 0-2.565-.703-3.877-2.211-2.996-3.445-9.093-4.358-9.093-1.362 0 .243-.232.92-.517 1.506-.584 1.202-.413 2.04.611 3.003l.535.502.812-.599c1.653-1.219 2.982-.468 2.833 1.601-.101 1.416-.785 1.52-2.227.338-1.296-1.061-1.621-1.069-2.394-.056-.823 1.079-.796 1.181.582 2.17 1.649 1.185 1.79 2.564.381 3.733-.542.45-.463 1.047.222 1.691.83.78 1.64.706 3.725-.338l1.796-.9V108.578l.761-.073c.47-.046 1.241.169 2.021.564 1.665.844 2.495.839 3.798-.025 2.037-1.351 4.826-.908 5.813.923.647 1.2-.927 2.09-3.699 2.091-1.624.001-1.824.061-3.128.947-.766.52-1.953 1.109-2.639 1.309-3.565 1.04-5.367 3.592-3.755 5.318 1.012 1.083 1.756 1.349 2.939 1.051 2.57-.647 3.545-.021 2.46 1.578-1.022 1.506-.855 2.256.828 3.714 1.831 1.586 1.945 2.337.48 3.172-1.254.714-1.338 1.076-.637 2.738.873 2.069.532 2.447-1.352 1.501-2.179-1.093-2.462-1.692-1.379-2.926 1.888-2.149 1.079-4.088-2.175-5.216-1.252-.434-1.802-.2-3.862 1.64-1.016.907-2.486 1.99-3.268 2.407-1.83.975-1.972 1.168-2.196 2.979-.103.832-.417 1.888-.697 2.348-1.098 1.802-.622 3.209 1.998 5.908 1.802 1.856 1.843 2.006.803 2.903-3.598 3.105-3.587 3.02-.74 5.772 2.716 2.626 2.691 2.619 4.505 1.269.812-.605 1.793-1.331 2.179-1.614l.702-.514-.539-1.046c-.297-.575-.703-1.678-.904-2.452-.2-.774-.579-1.68-.84-2.012-1.132-1.439-.096-2.07 1.812-1.104l1.31.663 1.15-1.189c.632-.655 1.523-1.406 1.98-1.67.557-.322 1.033-.905 1.445-1.77.822-1.724 1.183-1.946 3.21-1.968 2.922-.032 4.061-.595 4.247-2.1.327-2.63.605-2.914 2.387-2.435 1.516.409 2.084.162 2.646-1.148.826-1.929 1.806-2.035 3.865-.419 3.341 2.623 2.65 4.443-1.239 3.262l-1.624-.493-1.774.899c-.976.494-2.126 1.023-2.555 1.175-.893.316-.967.833-.53 3.677.599 3.904.611 3.707-.254 4.323-1.897 1.351-4.795.339-4.795-1.673 0-1.809-1.326-1.462-3.193.836-1.133 1.393-1.161 1.467-1.015 2.633.083.66.238 2.08.344 3.156.293 2.959.696 3.479 3.677 4.732.662.279 1.044.676 1.484 1.544 1.731 3.417 3.316 3.543 6.248.5l2.106-2.186 1.977.165c2.266.189 3.028-.035 4.84-1.418 1.895-1.448 2.964-1.058 3.461 1.261.224 1.045.451 1.406 1.351 2.15 1.587 1.311 1.688 1.758.802 3.557-1.817 3.691-3.745 3.874-5.122.488-.901-2.214-1.043-2.312-3.34-2.305-4.369.012-4.741.354-4.741 4.355 0 3.924.098 4.052 3.829 4.98 1.893.471 2.071.573 3.274 1.877 1.527 1.654 1.545 1.772.395 2.613-3.301 2.413-3.931 4.115-2.477 6.691.387.685.777 1.64.867 2.122.467 2.488 5.45 3 8.428.867 1.318-.944 1.392-.927 2.342.559.557.87 1.166 1.461 1.917 1.86 1.777.943 1.295 1.506-2.449 2.862-2.716.983-3.162 1.24-4.306 2.481-1.425 1.546-2.315 3.378-1.962 4.037.238.445.171.587-.534 1.124-.443.338-1.346 1.177-2.006 1.863-1.402 1.459-1.949 1.775-3.074 1.775-2.209 0-1.423-1.756 1.397-3.121 1.219-.59 1.443-1.067 1.092-2.33-.347-1.251-.318-2.422.096-3.796.41-1.362.286-1.596-1.059-1.999-1.287-.386-1.691-1.035-1.691-2.716 0-1.491-.46-2.063-1.362-1.694-1.792.732-4.296 2.548-6.333 4.593-2.827 2.837-2.971 3.208-1.5 3.859 1.448.64 4.396 3.589 4.396 4.397 0 .331-.542 1.405-1.205 2.386-.942 1.394-1.262 2.119-1.466 3.322-.333 1.967-.77 2.698-1.482 2.481-1.37-.417-1.721-1.595-.993-3.337.333-.797.881-4.119.863-5.229-.004-.234-.402-.882-.884-1.44-.814-.943-.866-1.098-.742-2.181l.133-1.165-1.731.095c-2.133.116-2.92.49-3.956 1.876-1.366 1.83-1.469 1.92-2.198 1.92-.555 0-.927-.26-1.721-1.202-1.749-2.074-3.134-2.12-6.128-.2-2.582 1.655-3.556 1.164-2.609-1.315.623-1.63-.163-2.897-2.253-3.634-3.42-1.207-4.246 1.129-1.494 4.228 1.7 1.915 1.392 2.603-1.165 2.603-2.355 0-2.54.183-2.476 2.453.131 4.644 3.234 4.749 4.009.136l.294-1.75 1.477-.071c2.239-.108 3.1.231 5.045 1.982 2.951 2.658 3.979 2.852 6.018 1.137 2.788-2.345 3.525-2.142 3.859 1.066.115 1.111.35 1.956.668 2.402 1.322 1.857.315 3.684-2.029 3.681-.86-.001-1.228-.171-2.833-1.307-.52-.368-.996-.455-2.232-.41-1.396.052-1.68-.019-2.548-.634-3.395-2.406-7.737-1.159-6.524 1.874.625 1.56.52 3.006-.254 3.526-.353.238-.974.794-1.38 1.237-2.22 2.424-2.506 2.674-3.067 2.674-1.445 0-2.248 2.011-1.34 3.356 1.057 1.566 3.015 1.603 3.33.062.505-2.47 3.237-1.896 2.939.618-.191 1.617.255 2.796 1.603 4.235 2.053 2.192 2.213 3.055.638 3.451-3.012.758-3.78 3.162-1.822 5.7 2.248 2.914 4.754 1.578 4.438-2.365l-.149-1.86h.809c2.528 0 4.221-1.661 2.565-2.517-1.23-.636-1.166-2.721.09-2.962.615-.119.85.196 1.058 1.417.155.914.303 1.121 1.056 1.476 2.347 1.108 2.259 3.88-.168 5.291-3.606 2.096-5.441 6.173-2.778 6.173 1.461 0 2.566 1.691 1.398 2.139-.297.114-1.175.702-1.951 1.306-.776.604-1.801 1.227-2.279 1.384-.478.158-1.727.701-2.776 1.208-2.457 1.188-3.287 1.142-4.549-.253-.57-.63-1.249-.648-1.573-.042-.325.607-.119 1.09.604 1.419 1.07.488.697 2.025-.793 3.269-.716.598-.78.765-.78 2.051 0 1.119-.113 1.536-.566 2.078-2.03 2.432-1.774 4.06.767 4.878l1.119.36.132 1.863c.247 3.479 2.297 3.671 4.238.397 1.046-1.767 1.228-1.946 1.786-1.769.264.084 1.391.023 2.506-.135 2.388-.339 2.736-.184 2.736 1.219 0 1.235-.634 1.664-2.461 1.664-2.775 0-4.978 1.68-4.978 3.795 0 .899.836 1.964 1.541 1.964 1.695 0 2.686.937 2.938 2.779.109.796.429 1.448 1.148 2.341a48.728 48.728 0 0 1 1.528 2.001c.545.782 1.945 1.427 2.573 1.186.481-.184.438-.848-.14-2.155-.607-1.373-.384-1.917 1.049-2.568 1.35-.613 1.6-.582 1.602.195.005 2.297.899 3.299 2.943 3.299 1.399 0 1.461.027 1.913.831.624 1.107 1.028 1.378 2.521 1.695.866.184 1.646.581 2.495 1.271 2.71 2.2 3.246 2.564 4.293 2.918.936.317 1.21.575 1.955 1.838l.867 1.47-.968.921c-.876.834-.955 1.005-.826 1.797.35 2.157 1.825 2.361 2.877.397 1.23-2.295 3.526-1.297 3.763 1.634.151 1.865.623 2.306 1.545 1.44.741-.696 1.661-.706 2.985-.031.536.274 1.624.65 2.418.835.993.231 1.757.605 2.45 1.198.88.753 1.168.863 2.27.863 1.15 0 1.457.131 3.461 1.485 2.649 1.791 2.616 1.718 1.791 3.869-.999 2.604-1.512 3.276-2.522 3.302l-.84.022.963.444c.53.244 1.505.516 2.168.604l1.206.16-.088-.924c-.083-.876.774-2.723 1.886-4.063 1.311-1.58 2.757 3.374 1.506 5.16-.49.699-.06 1.129 1.339 1.343.472.073 1.164.29 1.538.483.373.194 1.237.356 1.919.361.683.005 1.997.168 2.92.362.924.194 3.296.423 5.271.508l3.591.154-.402-.613c-.418-.638-.349-1.225.309-2.639.336-.724.511-.784 1.205-.412.588.315.585.603-.016 1.366-1.375 1.748-.561 2.225 3.8 2.225h3.593l.323-1.02c.501-1.583 1.943-1.667 2.266-.132l.217 1.032 1.822.069c1.757.067 3.227-.501 2.195-.848-.442-.149-.11-.541.459-.541.268 0 .795-.181 1.169-.402.881-.521 1.433-.123 1.433 1.031v.811h43.128l7.072-1.43c24.693-4.991 43.831-14.08 64.257-30.515 1.914-1.54 4.003-3.216 4.643-3.724 3.765-2.989 13.495-12.895 17.073-17.381 1.187-1.489 2.98-3.7 3.982-4.913 19.299-23.357 31.164-58.808 29.733-88.843-.492-10.332-1.295-15.76-3.876-26.2-1.342-5.43-5.409-16.909-8.029-22.661-.838-1.839-1.47-3.398-1.405-3.463.065-.065 1.817-.145 3.894-.177 2.076-.032 4.855-.118 6.175-.191 2.861-.158 18.949-.691 23.035-.763 1.584-.027 5.579-.158 8.878-.291 3.3-.132 9.34-.251 13.424-.264 8.855-.029 16.401-.481 16.101-.966-.065-.106.526-.251 1.314-.322 2.312-.21 4.13-1.741 2.631-2.216-.493-.157-.496-.18-.084-.635 2.115-2.337-8.871-4.406-15.149-2.852-1.488.367-2.521.297-4.973-.34-2.152-.559-2.331-.571-3.566-.229-1.845.512-9.504.727-12.577.353-4.69-.571-20.124-.575-22.076-.007-1.222.356-2.887.549-6.119.708-3.62.179-4.859.338-6.718.86-1.999.561-2.547.621-4.453.49-1.663-.115-2.707-.042-4.439.308-1.246.252-3.616.53-5.265.617-4.71.25-11.486 1.032-13.198 1.525l-1.559.449-1.663-.58c-1.251-.436-1.934-.543-2.76-.433-.603.08-3.057.234-5.453.341-6.019.27-7.065.996-5.593 3.882.341.667.474 1.264.392 1.757-.069.41-.253 1.609-.409 2.665-.634 4.287-.651 4.334-1.917 5.548-.646.619-1.471 1.713-1.834 2.43-1.115 2.203-2.452 2.821-3.426 1.582-.564-.717-.5-1.136.371-2.42.433-.638.576-1.172.576-2.151 0-.716.29-2.498.644-3.959 1.277-5.268-.364-9.773-3.449-9.469-1.622.159-2.741.883-3.616 2.339-1.325 2.203-1.919 2.251-6.745.548-3.278-1.156-4.845-1.317-6.42-.659-.721.301-1.329.351-2.728.225-3.967-.36-5.633-.999-8.678-3.327-1.143-.874-2.892-2.083-3.887-2.687-5-3.036-3.903-5.797 3.888-9.793 6.552-3.359 11.37-4.357 18.273-3.783 6.89.573 7.434.984 3.863 2.918-2.036 1.103-2.359 1.801-1.329 2.877 2.921 3.051 8.713 3.821 14.367 1.91l2.103-.711 13.933.208c12.07.18 14.095.16 15.139-.15 1.116-.331 1.395-.319 3.787.164 2.759.556 3.99.562 9.085.041l5.154-.524c1.317-.132 4.017-.632 5.999-1.109l3.604-.868 3.6.268c4.065.303 5.734.147 8.488-.792.974-.332 3.048-.77 4.608-.974 1.561-.204 3.464-.57 4.229-.815 3.12-.996 7.471-1.481 11.496-1.281 2.053.101 2.664.041 3.971-.394.85-.283 3.333-.726 5.519-.984 7.676-.909 12.685-2.227 19.632-5.167l1.555-.658 1.805.551c3.509 1.073 4.343.871 4.306-1.046-.03-1.516.374-3.535.757-3.782 2.481-1.597-17.455-.976-40.092 1.249-5.477.539-10.767 1.023-11.757 1.076-.99.053-4.931.263-8.759.465-9.791.519-16.735.969-28.074 1.822-11.962.9-16.754 1.004-17.704.383-1.256-.821-5.08-4.529-7.914-7.676-1.025-1.138-2.915-2.849-4.199-3.802l-3.653-2.714c-.725-.539-2.247-1.871-3.384-2.959-1.137-1.089-2.17-1.98-2.296-1.98-1 0-1.832-1.667-1.641-3.288.281-2.38.077-7.066-.353-8.11-.352-.854-1.207-3.72-1.207-4.045 0-2.306-5.738-5.57-12.478-7.096-.726-.165-1.752-.493-2.279-.73a18.801 18.801 0 0 0-2.04-.747c-.594-.174-1.15-.418-1.236-.542-.085-.125-.306-.169-.49-.099-.183.071-.539-.021-.79-.205-.25-.183-.628-.333-.839-.333-.21 0-.806-.216-1.324-.48s-1.085-.48-1.26-.48c-.176 0-.612-.216-.969-.479-.358-.264-1.19-.686-1.85-.937a316.69 316.69 0 0 1-3.72-1.467c-4.592-1.841-8.476-3.072-12.017-3.807-1.925-.4-4.624-1.106-5.999-1.569-15.602-5.251-22.518-7.126-27.908-7.566-1.701-.138-3.236-.415-4.127-.744-4.439-1.638-6.433-2.214-10.656-3.079a2126.55 2126.55 0 0 1-7.559-1.561c-18.399-3.852-35.005-1.554-55.309 7.653-4.373 1.983-13.202 5.458-13.867 5.458-.881 0-2.057-2.147-3.056-5.579-.247-.847-.995-2.287-1.397-2.689-.187-.187-1.285-1.953-2.44-3.925-2.445-4.174-3.441-5.728-4.266-6.65-.328-.367-.729-.988-.891-1.38L78.166 0H65.619l-.738 1.14m11.616 13.065c.349.349.37 1.378.039 1.872-.206.307-.311.277-.716-.207-.935-1.114-.31-2.651.677-1.665m-9.31 2.232c0 .33-.108.6-.24.6s-.24-.27-.24-.6c0-.33.108-.6.24-.6s.24.27.24.6m14.799 4.859c1.53 1.031 4.029 2.962 4.107 3.173.664 1.789-6.053.395-7.606-1.579-1.522-1.935 1.173-3.162 3.499-1.594m71.823 6.075c0 .14.26.599.578 1.019.318.42.694 1.201.836 1.735.459 1.727 2.265 2.945 3.163 2.133.611-.554.583-1.015-.127-2.06-1.115-1.64-4.45-3.76-4.45-2.827m23.263 2.968c.6.723-.543 1.828-1.933 1.868-1.268.036-1.41-.458-.397-1.389.946-.87 1.851-1.057 2.33-.479m-102.29 3.795c-2.04 2.041-1.112 6.617 1.501 7.4 1.753.525 3.053-.748 3.31-3.242.306-2.961-3.081-5.888-4.811-4.158m71.463 1.242c-1.887 4.94 7.009 15.295 10.307 11.997 1.147-1.147.003-2.662-2.252-2.98-3.025-.428-3.566-1.53-2.837-5.781.34-1.983.091-2.379-1.499-2.379-.731 0-1-.157-1.645-.96-1.025-1.276-1.558-1.249-2.074.103m106.452 5.302c-.005.129-.251.271-.546.317-.473.073-.499.035-.214-.308.338-.408.775-.413.76-.009M80.475 41.856c-2.126.925-1.934 3.697.283 4.113 2.373.446 4.504-2.438 2.91-3.936-.648-.608-2.027-.684-3.193-.177m95.188 2.517c.825.824.911 1.599.205 1.823-.645.205-1.323-.405-1.514-1.362-.269-1.343.247-1.524 1.309-.461m-6.789.217c.074.224-.093.295-.563.239-.367-.043-.715-.221-.772-.396-.074-.225.092-.296.563-.24.367.043.714.221.772.397m25.996 1.961c1.558 1.17 1.815 1.178 3.916.119 2.442-1.23 3.498-.982 3.49.818-.006 1.286-.194 1.43-2.702 2.066l-2.305.585-1.028-.46c-.81-.363-1.348-.431-2.528-.321-1.955.183-2.231-.043-2.231-1.829 0-2.276 1.2-2.623 3.388-.978m50.555 4.621c.08.96-.17 1.128-.777.521-.652-.652-.433-1.634.331-1.489.24.045.398.389.446.968m-17.149 1.43c1.053.541 2.318 1.935 2.318 2.555-.001 2.434-1.991 7.193-3.398 8.124-1.183.783-1.203.882-.791 3.821.534 3.802 1.087 4.614 3.403 4.997 5.126.845 2.918 4.54-3.561 5.961-3.658.803-4.708 1.33-7.065 3.551-1.97 1.856-3.746 3.003-4.207 2.718-.891-.55 2.251-6.106 4.492-7.942.958-.786 3.448-5.012 3.448-5.854 0-.161-.431-.762-.959-1.335-1.117-1.211-1.18-1.636-.365-2.487 1.205-1.258 1.092-2.002-.544-3.574-2.235-2.146-2.899-5.122-1.174-5.264 1.169-.096 1.508.198 1.677 1.458.173 1.295 1.086 2.156 2.174 2.05l.751-.073.153-3.36c.242-5.285 1.156-6.625 3.648-5.346m-30.661 1.011c.629.465.192.894-.942.926-1.132.033-1.361-.247-.666-.81.678-.55.99-.572 1.608-.116m4.086.734c.438.67.309 1.322-.263 1.322-.485 0-2.278-.911-2.278-1.157 0-.917 1.964-1.044 2.541-.165m31.638.317c.076.24.528.861 1.004 1.38 2.34 2.551 2.438 2.83 1.178 3.356-1.839.768-2.412.27-2.342-2.038.036-1.192-.058-1.882-.308-2.263-.336-.513-.277-.87.146-.87.101 0 .246.196.322.435m-18.583 1.393c1.156 1.044 1.172 1.17.215 1.665-1.299.672-2.374-.082-2.374-1.665 0-1.172.863-1.172 2.159 0m36.094-.482c.556.213.497 1.294-.071 1.294-.575 0-1.084-.606-.903-1.077.15-.393.382-.445.974-.217m-198.9 1.774c-.924.248-1.76.458-1.857.466-.097.007-.45.445-.783.973-.739 1.172-.782 1.173-2.544.086-3.789-2.339-4.747 1.175-1.271 4.659 2.584 2.589 4.829 3.283 5.144 1.588.173-.935.713-.856 3.59.527 2.789 1.339 3.12 1.623 3.12 2.671 0 2.131 1.749 2.367 2.275.307.199-.781.545-1.212 1.531-1.904 1.471-1.033-.213-4.606-3.768-7.998-1.979-1.888-2.782-2.091-5.437-1.375m98.152.297c.78.517 1.044.804.785.853-.609.118-2.05-.577-2.346-1.13-.401-.749.163-.649 1.561.277m53.636.884c.576.576.701.902.701 1.83v1.129l-.983-.157c-2.69-.43-3.156-1.131-1.728-2.594 1.068-1.093 1.12-1.098 2.01-.208m9.179 3.796a7.975 7.975 0 0 0 .863 3.012c.77 1.5.757 1.963-.059 2.182-.906.242-1.101.166-1.49-.586-1.023-1.977-2.157-2.16-4.403-.707-2.448 1.581-2.909 1.352-2.909-1.445 0-1.939.086-2.025 2.04-2.044 1.682-.016 2.798-.489 4.259-1.802 1.255-1.13 1.484-.942 1.699 1.39m-121.291.805c.868.303 1.016 1.02.289 1.409-.568.304-1.46-.045-1.894-.74-.555-.888.143-1.179 1.605-.669m-52.634.493c-1.313.719-1.379 1.55-.224 2.828 2.114 2.341 6.235 2.295 5.763-.064-.392-1.964-3.848-3.688-5.539-2.764m105.421.454c.671.409.752.547.5.85-.475.573-1.234.305-1.586-.561-.385-.947-.113-1.02 1.086-.289m103.837 1.939c1.782.448 2.751 2.343 1.452 2.837-1.569.596-5.102-1.501-4.625-2.745.169-.44 1.624-.482 3.173-.092m-113.478.674c1.688 1.03 1.13 2.339-.939 2.203-.526-.035-1.379-.868-1.379-1.348 0-1.087 1.206-1.533 2.318-.855m9.825 1.585c1.957 1.396 2.237 1.881 1.524 2.64-.839.893-1.744.967-3.19.26-2.691-1.317-3.178-2.663-1.276-3.526 1.313-.597 1.193-.622 2.942.626m-53.7.789c.041.418-.036.761-.171.761-.361 0-.804-.938-.642-1.358.227-.592.732-.221.813.597m19.723-.142c.691.743.586 2.19-.167 2.298-.939.133-2.041-1.502-1.668-2.474.206-.538 1.264-.436 1.835.176m127.276.17c1.918 1.265 1.68 3.373-.38 3.373-1.14 0-2.843-1.385-2.843-2.311 0-1.221 1.989-1.876 3.223-1.062m156.963 2.916c.106.317.2 1.265.208 2.107.012 1.362.08 1.573.614 1.915.869.558.985.786.837 1.635-.142.816.147 1.172.761.937.304-.117.319-.213.079-.501-.581-.701.258-.381 1.267.482 1.367 1.17 1.375 1.159 1.374-1.859-.001-3.91-.643-4.741-3.968-5.131-1.362-.16-1.365-.159-1.172.415m-303.975.587c1.289.903 2.803 4.227 2.201 4.829-.142.142-.331.989-.42 1.883-.186 1.854-.556 2.288-1.626 1.907-1.147-.409-1.236-.881-.468-2.488l.69-1.444-.759-1.648c-1.175-2.549-.992-4.002.382-3.039m95.269.756c.826.196.519.592-.699.902-1.302.33-3.193 1.401-4.139 2.345-.868.865-.968.762-.514-.527.2-.565.363-1.267.363-1.56 0-1.352 2.113-1.844 4.989-1.16m-51.388.714c.36 1.434-2.136 2.075-3.776.969-1.539-1.037-.902-1.543 2-1.586 1.558-.023 1.621-.001 1.776.617m-34.968 1.633c.672.854 1.788 2.001 2.482 2.548 2.145 1.693 2.483 2.54 1.591 3.984-.468.758-.486.934-.222 2.188.736 3.498-.008 4.701-1.77 2.862-2.18-2.276-2.434-3.623-.87-4.61 1.537-.97 1.128-2.428-.983-3.505-1.594-.813-3.088-3.789-2.349-4.679.494-.596.869-.382 2.121 1.212m104.642-1.103c0 .302-.704.844-.875.673-.246-.245.121-.884.508-.884.202 0 .367.095.367.211m-118.998.73c1.556 1.556-.064 3.515-1.785 2.161-.763-.6-.809-1.373-.135-2.23.639-.812 1.054-.797 1.92.069m109.04 1.365c.846.747.874.804.24.476-.863-.447-1.56-.977-1.56-1.189 0-.319.391-.108 1.32.713m-83.863 1.069c0 .695-1.354 2.465-1.715 2.242-.112-.069-.205-.66-.205-1.312v-1.186h.96c.528 0 .96.116.96.256m37.144 2.672c.438.437.345.912-.177.912-.553 0-.829-.367-.643-.852.162-.423.437-.444.82-.06M73.86 81.66c-.09.63-.866.708-1.234.124-.183-.29-.167-.503.059-.775.438-.528 1.277-.064 1.175.651m325.42-.556c0 .132-.158.24-.351.24-.194 0-.467.216-.609.48-.339.634-.874.608-1.231-.06l-.289-.539-.225.674c-.32.961-.004 2.75.537 3.039.321.172.466.581.533 1.501.095 1.332-.08 1.644-1.184 2.106-.927.387-.632.737.48.567 1.188-.181 1.773-.442 2.519-1.121.786-.716.816-7.127.034-7.127-.117 0-.214.108-.214.24m-314.457.48c0 .52-.936.448-1.038-.08-.065-.341.042-.421.477-.36.308.044.561.242.561.44m-2.939.634c1.169.599.817 1.181-1.355 2.245-1.061.52-1.321.798-1.945 2.077-.396.812-.854 1.631-1.017 1.821-.164.19-.239.405-.166.477.254.255-2.861 1.624-3.695 1.624-2.45 0-2.308-1.716.199-2.4l1.32-.36.126-1.417c.091-1.027.247-1.489.566-1.679.975-.582 1.588-1.158 1.88-1.767.601-1.253 2.336-1.517 4.087-.621m59.594 1.866c.176.461-.318 1.339-.755 1.339-.241 0-.351-.262-.351-.84 0-.886.816-1.254 1.106-.499m-49.705.899c.41.187.893.862 1.461 2.043.953 1.981 1.799 2.7 3.91 3.327 1.355.403 1.488.75.474 1.245-1.703.831-7.542-2.22-8.659-4.524-.857-1.771.805-3.007 2.814-2.091m-22.326.468c.886.697.722 1.337-.581 2.259-.993.703-1.078.844-1.059 1.758.023 1.117-.178 1.244-.727.461-.383-.547-.557-4.483-.213-4.826.357-.357 1.958-.142 2.58.348m40.376.494c1.025.963.46 1.621-.633.736-.344-.279-.467-.564-.361-.84.207-.539.322-.527.994.104m-23.74.789c1.172.546 1.26.645 1.26 1.437v.851h-1.8c-.99 0-1.8.1-1.8.222 0 .541-1.309 1.709-2.177 1.942-1.155.312-1.195.693-.222 2.155 1.793 2.698-.089 4.718-3.149 3.381-.578-.253-1.806-.536-2.73-.63-3.398-.345-3.593-2.751-.223-2.751 2.531 0 4.66-1.347 4.665-2.951.004-.959.062-1.04 1.196-1.665.717-.396 1.433-1.04 1.799-1.62.734-1.162 1.332-1.232 3.181-.371m34.381.739c.403.484.004.898-.76.79-.83-.118-.95-1.16-.134-1.16.323 0 .725.166.894.37m-31.942 6.875c.414 1.603.261 2.113-.632 2.112-1.739-.003-3.136-1.71-2.307-2.82 1.098-1.47 2.462-1.142 2.939.708m40.37-.923c2.187.174 2.999.501 3.46 1.391 1.187 2.296-.713 3.362-3.076 1.724-1.243-.861-2.176-.815-4.911.241-4.459 1.722-4.947 2.084-5.002 3.712-.088 2.628-1.787 2.493-1.787-.142v-1.57l-1.439-1.499c-2.143-2.232-1.878-2.682 1.118-1.901 3.155.822 7.28-.076 7.28-1.583 0-.766.886-1.181 1.762-.827.417.169 1.584.373 2.595.454m85.891.575c.505.424 1.202 1.554 1.964 3.179 1.917 4.091 4.423 8.058 5.881 9.307 1.943 1.668 1.779 2.082-1.272 3.213-4.472 1.658-5.671 1.163-6.479-2.678-.2-.953-.671-2.503-1.046-3.447-.781-1.963-1.313-9.821-.682-10.078.574-.233.865-.143 1.634.504m-26.859 1.418c.83.752.159 2.962-.9 2.962-1.073 0-1.454-1.887-.572-2.834.586-.629.889-.655 1.472-.128m-92.072 2.027c1.217 1.069 1.069 1.895-.338 1.895-.74 0-1.693-.933-1.693-1.657 0-1.241.784-1.333 2.031-.238m74.582 1.266c1.145.49 2.292 1.767 1.768 1.968-1.125.432-3.036-.391-3.036-1.307 0-1.055.156-1.137 1.268-.661m-13.871 2.057c.536 1.038.49 2.411-.082 2.411-1.07 0-2.254-2.257-1.552-2.959.418-.418 1.285-.127 1.634.548m-73.112.704c.972.52.741 1.971-.481 3.017-1.394 1.193-1.683 1.213-4.146.279-2.421-.917-2.744-1.433-1.911-3.045l.397-.767 2.804.115c1.543.064 3.044.244 3.337.401m34.125 3.011c0 .712-.718 1.002-1.476.596l-.534-.286.552-.447c.798-.646 1.458-.584 1.458.137m-41.747.091c.787.637-.122 2.685-1.192 2.685-.797 0-1.514-1.747-1.129-2.749.198-.517 1.653-.477 2.321.064m-57.686.173c-.59.589-.919 1.31-.772 1.69.194.507.713.415 1.323-.235.897-.954.361-2.367-.551-1.455m86.211.96c.903 1.029.995 1.661.205 1.417-1.598-.493-2.3-1.157-2.013-1.905.236-.613 1.03-.399 1.808.488m-51.439-.042c-.851.622.254 2.05 1.323 1.711.825-.262.494-1.239-.633-1.873-.146-.082-.456-.009-.69.162m90.435 1.921c.54.311 1.723.81 2.63 1.109 1.914.629 2.55 1.165 2.55 2.149 0 1.505-1.929 1.925-3.503.762-3.529-2.608-4.894-5.88-1.677-4.02m-60.912-.065c.089.145.932.633 1.873 1.085l1.712.822.019 1.495c.01.822.106 2.058.213 2.748.188 1.222.177 1.259-.474 1.507-1.424.541-3.234-.803-3.237-2.402 0-.331-.257-1.087-.571-1.68-.745-1.408-.946-2.404-.645-3.196.249-.656.818-.85 1.11-.379m53.812.378c-.116.602-.677.684-.677.099 0-.294.155-.499.377-.499.224 0 .346.163.3.4m-25.938.959c.156.474-.814.6-1.716.223-.472-.197-.858-.423-.858-.503 0-.271 2.482-.001 2.574.28m4.533.372c1.236.95 1.415 1.531.392 1.275-.747-.186-2.22-1.234-2.22-1.579 0-.421 1.129-.233 1.828.304m73.757 1.288c0 .752-.563.669-.676-.099-.051-.346.05-.521.3-.521.245 0 .376.217.376.62m-134.211 1.876c-.169.442.036.623.704.623.665 0 .999-.455.545-.743-.499-.316-1.104-.258-1.249.12m42.97.421c2.788 1.723 2.99 5.961.284 5.961-1.323 0-1.901-.61-2.403-2.536-.945-3.627-.188-4.851 2.119-3.425m19.823 1.18c1.115.877.551 1.902-1.047 1.902-1.044 0-1.68-.489-1.68-1.289 0-1.167 1.573-1.521 2.727-.613m28.578 1.505c.462.338.329.877-.216.877-.431 0-.932-.641-.741-.95.205-.332.425-.315.957.073m-41.915.771c.718.503 1.311 1.7 1.128 2.277-.218.689-1.555.626-2.351-.111-1.616-1.498-.541-3.401 1.223-2.166m-26.213.952c.787.202 2.324.91 3.416 1.574 1.555.944 2.374 1.273 3.772 1.516 2.832.493 3.352 1.463 1.33 2.482-2.411 1.216-5.753.194-11.51-3.519-1.244-.803-2.492-1.46-2.773-1.46-.282 0-.721-.17-.977-.379-.46-.374-.459-.377.014-.223 1.079.351 1.727.356 2.639.019 1.243-.46 2.323-.463 4.089-.01m59.859.833c0 .132-.162.24-.36.24-.198 0-.36-.108-.36-.24s.162-.24.36-.24c.198 0 .36.108.36.24m-87.53.374c-.753.528-.725 1.855.056 2.637.726.726.961.735 1.437.055 1.072-1.529-.11-3.661-1.493-2.692m8.345.522c-1.456.508-1.866 2.091-.798 3.081.822.762 3.839 1.709 4.375 1.373 1.823-1.141-1.438-5.201-3.577-4.454m69.586.05a.485.485 0 0 1-.218.361c-.31.191-1.005-.114-.846-.372.177-.286 1.064-.277 1.064.011m-34.313 1.214c1.058 1.057.362 2.879-1.1 2.879-1.382 0-1.851-.859-1.179-2.159.63-1.219 1.504-1.495 2.279-.72m-77.318.9c-.203.231-.546.771-.764 1.201-.218.429-.825 1.052-1.349 1.383-2.146 1.354-.612 2.751 2.81 2.558 1.007-.057 1.14-.538.788-2.863-.283-1.874-.565-2.699-.923-2.699-.106 0-.36.189-.562.42m227.389-.274c.824.316.254 1.534-.719 1.534-.85 0-1.216-.632-.697-1.205.449-.496.78-.573 1.416-.329m-10.766 1.075c.089.143.053.369-.08.502-.273.272-1.252-.143-1.252-.532 0-.318 1.133-.293 1.332.03m-93.535 1.216c1.017 2.122.416 3.562-1.487 3.562-.757 0-.78-.378-.132-2.222.264-.751.48-1.538.48-1.749 0-.596.794-.311 1.139.409m-61.867.388c1.471 1.094.541 3.174-1.419 3.174-2.037 0-2.956-2.51-1.344-3.669.424-.305 2.088-.006 2.763.495m-26.005.746c-.789 2.375-2.487 2.619-5.513.793-1.889-1.14-1.886-1.139-2.398-.628-.533.534-.467 1.263.163 1.796 1.973 1.668 3.016 2.421 3.538 2.555 2.082.532 8.389-2.922 7.697-4.216-.917-1.713-2.959-1.889-3.487-.3m77.327 1.516c.37.37.375 1.392.007 1.392-.451 0-1.159-.756-1.159-1.237 0-.506.707-.601 1.152-.155m-33.785.912c.59.59.661 2.105.108 2.317-.847.325-2.129-1.737-1.529-2.46.389-.468.857-.421 1.421.143m72.373.847c1.112 1.698-.853 6.316-2.583 6.071-.795-.112-.838-.939-.096-1.821.516-.614.612-.967.612-2.259 0-2.35 1.123-3.432 2.067-1.991m78.377 1.085c1.588.441.843 1.752-1.183 2.08-.978.159-1.267-.135-1.273-1.295-.005-1.006.769-1.254 2.456-.785m-95.609.995c.353.353.38 2.451.04 3.087-.666 1.244-2.632-.254-2.632-2.006 0-1.214 1.735-1.938 2.592-1.081m35.321.411c0 .412-1.477 1.461-2.058 1.461-.758 0-.787-.789-.048-1.306.574-.402 2.106-.515 2.106-.155m-81.956.721c.37.599-3.425 3.619-4.548 3.619-1.014 0-1.242-2.364-.289-2.989.913-.598 4.563-1.074 4.837-.63m-81.954 1.096c-1.775 1.002-2.442 1.271-3.841 1.552-2.247.451-3.003 1.686-1.65 2.693 1.314.977 2.106.856 4.318-.659 1.283-.879 2.409-1.457 3.083-1.583.583-.109 1.213-.325 1.4-.479 1.94-1.611-.866-2.902-3.31-1.524m40.831 2.052c1.841.939 2.249 2.728.925 4.052-1.136 1.136-2.699.901-4.361-.654-.991-.927-.649-3.897.592-5.138l.505-.505.714.89c.393.489 1.124 1.099 1.625 1.355m171.248-1.223c1.114 1.658.837 2.655-.944 3.393-.952.394-1.146.075-1.151-1.895-.006-2.549.936-3.222 2.095-1.498m-115.889.148c.588.412.723 1.501.245 1.978-.476.476-2.191.352-2.786-.201-1.015-.946-.301-2.15 1.275-2.15.403 0 .973.168 1.266.373m-8.471 2.734c.469.908.479 1.932.018 1.932-.353 0-1.386-1.233-1.64-1.957-.344-.982 1.113-.959 1.622.025m-62.508 1.752c-.572.931-1.032 2.497-.83 2.825.564.911 2.996-1.003 2.996-2.358 0-1.432-1.389-1.731-2.166-.467m40.777.036c1.059 1.127 1.07 3.263.017 3.263-1.326 0-2.615-1.496-2.228-2.586.458-1.294 1.369-1.573 2.211-.677m143.709.915c-.198 1.373-2.697 2.023-3.831.996-.874-.791.322-1.476 2.632-1.509 1.185-.017 1.271.019 1.199.513m-133.495.902c.395.436.405.653.13 2.729-.345 2.608-.338 2.593-1.444 3.157-.462.236-1.455.845-2.207 1.353-3.015 2.042-4.005.712-1.766-2.374.533-.734.547-.843.246-1.844-.372-1.237-.311-1.321 1.37-1.881.617-.205 1.533-.652 2.035-.993 1.095-.744 1.095-.744 1.636-.147m-46.662 1.68c-.531.993 1.424 1.968 2.162 1.079.253-.305.21-.468-.252-.96-.671-.714-1.562-.769-1.91-.119m58.708 2.631c1.982 1.733 3.119 2.323 5.378 2.794 2.572.537 3.316 1.149 2.153 1.771-.874.468-2.006.248-4.42-.859-3.835-1.758-6.106-1.707-6.513.145-.626 2.851-3.213 2.823-5.579-.059-1.371-1.67-.762-2.572 1.741-2.577 1.31-.002 2.313-.448 3.492-1.551 1.499-1.402 1.79-1.376 3.748.336m-24.023-.442c.091.148-.429.815-1.186 1.519-1.534 1.428-1.579 1.625-.738 3.234 1.886 3.607-2.257 3.898-4.442.313-.996-1.636-1.362-1.97-2.156-1.97-2.195 0-2.564-2.123-.378-2.17.268-.006.918-.175 1.446-.377 1.863-.709 7.115-1.096 7.454-.549m67.723.264c.81.81.087 2.028-.901 1.518-.641-.332-1.302-1.394-1.034-1.662.255-.255 1.639-.152 1.935.144M20.276 144.32c-3.068 1.546-4.469 3.266-3.191 3.919 1.888.964 2.401.885 3.098-.482.268-.525.92-1.424 1.45-1.998 1.62-1.758.865-2.558-1.357-1.439m27.074 3.91c-1.423 3.401 1.869 9.551 3.866 7.224 2.565-2.987 2.829-4.529.964-5.622-.594-.348-1.589-1.054-2.211-1.567-1.468-1.214-2.123-1.223-2.619-.035m83.701.024.765.683-.937.637c-1.561 1.06-2.985.777-2.985-.595 0-1.504 1.818-1.922 3.157-.725m20.359.23c0 .529-.694 1.12-.982.836-.232-.228-.229-.368.013-.66.324-.389.969-.506.969-.176m28.314.42c0 .396-.379.463-.6.106-.196-.316.091-.766.377-.589.123.075.223.293.223.483M19.19 150.222c-.627 1.171.293 2.374 1.192 1.56.611-.552.63-1.134.055-1.655-.583-.527-.929-.501-1.247.095m47.581 1.303c-.426.186-1.711.499-2.856.697-3.002.518-3.339 1.226-1.43 3.009 1.9 1.775.404 2.88-4.897 3.617-4.752.661-5.278.979-5.278 3.181 0 2.671.975 3.448 4.061 3.236l1.881-.129.123.919c.434 3.234 5.204 8.022 6.454 6.478 1.278-1.578 1.709-6.39.716-7.989l-.56-.902.653-1.137c1.249-2.173 2.027-2.667 2.82-1.791.569.629 1.614 3.021 1.777 4.065.077.499.487 1.61.911 2.468.424.857.848 1.883.944 2.279.245 1.018.786 1.529 1.788 1.689 2.584.413 2.907.728 2.907 2.841 0 1.788.015 1.805 2.394 2.787 4.386 1.808 7.081-1.328 5.063-5.891-.775-1.751-3.597-4.156-5.658-4.822-.517-.167-1.11-.803-2.106-2.257-1.799-2.626-2.458-3.265-3.902-3.782-1.411-.505-1.582-.97-.729-1.985.833-.989.783-1.302-.324-2.034-1.068-.707-1.697-1.832-1.697-3.037 0-1.565-1.37-2.242-3.055-1.51m50.333 4.084c1.538 1.844 3.716 4.003 4.252 4.214.761.3.672.942-.308 2.226-1.44 1.886-2.488 2.06-4.934.818-2.169-1.1-2.359-1.73-.954-3.161 1.22-1.244 1.298-1.85.407-3.162-.739-1.086-.758-1.236-.238-1.81.467-.516.716-.394 1.775.875m-14.059-.388c.197.381.839.974 1.426 1.318 2.701 1.584 3.309 3.279 1.894 5.286-.843 1.195-1.049 1.253-1.559.441a47.849 47.849 0 0 0-1.374-1.978c-.528-.726-.963-1.509-.966-1.74-.015-1.034-.882-1.428-2.755-1.253-2.774.26-2.663-.632.255-2.053 1.871-.912 2.616-.917 3.079-.021m-41.869 6.41c1.038 1.182.903 1.656-.471 1.656h-1.077l-.072-1.259c-.091-1.579.463-1.715 1.62-.397m-13.427.081c-2.585.786-3.832 2.729-2.746 4.28 1.028 1.467 2.091 1.237 2.91-.629.328-.746.841-1.626 1.141-1.956 1.296-1.425.634-2.285-1.305-1.695m45.526.955c.881.638.981.823 1.14 2.1.232 1.859.445 2.195 1.766 2.784 2.5 1.114 5.683.402 6.895-1.544.356-.572.687-1.084.734-1.139.435-.497 2.326 3.134 2.723 5.23.35 1.843.257 1.792 2.938 1.607 5.101-.351 6.289 1.966 1.649 3.214-1.631.439-2.571.145-3.879-1.212-1.341-1.392-1.437-1.404-5.501-.702-4 .691-5.38.654-5.928-.161-.647-.963-2.264-2.515-3.39-3.256-.803-.527-1-.799-1-1.372 0-.587-.233-.886-1.303-1.676-1.856-1.372-1.887-1.863-.218-3.401 1.482-1.365 2.034-1.443 3.374-.472m40.841-.067c.53.674.665 1.527.241 1.527-.755 0-2.082-1.436-1.779-1.926.269-.436 1.039-.236 1.538.399m9.29.032c-.29.469-2.061 1.531-2.304 1.381-.392-.242-.089-.556 1.146-1.186 1.109-.565 1.419-.618 1.158-.195M0 167.414v2.326l.846-.82c1.675-1.623 1.599-3.833-.132-3.833H0v2.327m50.613 2.198-.551.446.395 1.773c.217.976.466 2.368.552 3.094.207 1.741.641 2.53 1.569 2.853 2.923 1.019 3.536-2.318 1.05-5.708-.329-.448-.599-1.045-.599-1.326 0-1.369-1.346-1.999-2.416-1.132m82.899 2.932c1.025 1.218.638 2.654-.791 2.939-.39.078-1.261.633-1.936 1.232-3.145 2.793-3.389-.488-.274-3.687 1.422-1.459 2.09-1.567 3.001-.484m-65.015 1.197c-.946.275-1.897 1.308-2.265 2.461-.404 1.262-.761 1.314-2.671.39-3.534-1.709-4.812-.668-5.394 4.396l-.144 1.256 1.162.881c.64.485 1.48 1.214 1.868 1.62.387.406.945.738 1.238.738.487 0 2.722-1.554 3.089-2.149.271-.438 1.216-.275 3.483.601 3.076 1.188 4.765.531 5.997-2.333 2.021-4.698-1.649-9.232-6.363-7.861m-23.267 2.866c-1.091 1.206-.423 6.236.827 6.236 2.295 0 2.538-3.426.418-5.879l-.767-.887-.478.53m-36.261 1.302c-1.479.644-2.042 2.312-.949 2.81 1.956.891 4.628-1.616 2.964-2.781-.643-.451-1.032-.456-2.015-.029m127.804.534c0 .579-1.167 2.481-1.522 2.481-.734 0-1.171-1.327-.687-2.088.447-.703 2.209-1.017 2.209-.393m-71.28 1.028c.281.177.293.336.065.836-.354.777-.719.789-.909.031-.233-.929.141-1.313.844-.867m-65.448 1.6c-.009 1.554.447 2.12.639.794.046-.32.199-.653.339-.74.161-.1.029-.428-.357-.886l-.612-.728-.009 1.56m1.927-1.047c-.487.592-.447 1.62.062 1.62.59 0 1.202-1.131.844-1.561-.362-.437-.583-.452-.906-.059M.84 182.603a.52.52 0 0 0 .01.497c.087.14-.065.314-.337.385-.536.14-.744 2.718-.219 2.718.163 0 .162.1-.005.301-.199.239-.232 1.459-.071 2.62.065.469 1.811.73 3.042.454 1.071-.239 1.382-.225 1.992.09 3.17 1.639 3.944-1.557 1.135-4.686a39.744 39.744 0 0 1-1.609-1.913c-.614-.804-.626-.808-1.251-.399-.776.509-1.453.528-1.847.053-.347-.418-.631-.458-.84-.12m105.083 1.298c1.069.447 1.345 1.279.62 1.867-.781.632-1.986.554-2.865-.186-1.708-1.437-.083-2.654 2.245-1.681m-93.839 5.781c-.076.198-.071.534.011.747.195.509.862.002.862-.656 0-.536-.675-.606-.873-.091m98.014 2.163a7.228 7.228 0 0 0 1.554.953c2.198.918 2.371 5.374.223 5.729-5.552.917-7.131-.395-5.192-4.319 1.462-2.96 2.145-3.432 3.415-2.363M1.44 193.019c0 .459.098.552.48.452.551-.144.6-.334.192-.742-.444-.443-.672-.344-.672.29m129.438.616c.885.337.797 1.186-.234 2.247-1.842 1.897-3.229 1.148-2.137-1.154.53-1.116 1.334-1.487 2.371-1.093M2.052 195.301c-.143.231.245 1.46.462 1.46.069 0 .125-.378.125-.84 0-.795-.29-1.101-.587-.62m142.135 1.134c.997.698.277 5.885-.77 5.541-.314-.103-.803-4.94-.562-5.567.183-.476.628-.467 1.332.026m-141.15 1.687c-.325.326-.139 1.35.377 2.074.296.416.5 1.01.458 1.331-.057.433.015.546.282.443.512-.196.705.093.274.408-.383.28-.066 1.821.375 1.821.108 0 .378.07.601.155.375.144.376.102.019-.588-.465-.899-.473-1.007-.074-1.007.171 0 .414.351.54.78.17.578.385.798.83.847.531.06.554.031.206-.247-.493-.393-.013-1.095 1.167-1.705 1.212-.627 1.747-1.473 1.493-2.361-.434-1.512-1.866-2.409-2.931-1.837-.294.158-.859.354-1.255.434-.559.114-.737.293-.796.799-.042.358-.183.651-.314.651s-.171-.108-.09-.24c.082-.132.037-.24-.098-.24-.136 0-.185-.162-.109-.36.092-.24-.01-.361-.307-.363-.326-.003-.362-.057-.134-.202.252-.16.248-.249-.022-.474-.184-.152-.405-.205-.492-.119m100.352.468c.998.2.946.608-.241 1.896l-.991 1.076.287 3.367c.368 4.322.44 4.512 2.026 5.342.807.422 1.574 1.073 2.058 1.748 1.165 1.622 1.727 1.915 2.961 1.546 1.753-.525 4.184-1.883 4.722-2.638 1.479-2.077 5.217-2.663 4.312-.676-.361.792-1.385 1.359-2.786 1.542-1.61.21-1.947.436-2.232 1.497-.533 1.978-.999 2.263-3.344 2.048a58.358 58.358 0 0 0-3.982-.205c-1.694-.014-2.03-.094-2.853-.676-.513-.363-1.107-.66-1.32-.661-.212-.001-.791-.114-1.286-.251l-.9-.25v-1.483c0-1.425-.038-1.518-.96-2.361-1.155-1.056-1.202-1.571-.334-3.634.344-.817.716-2.125.827-2.906.468-3.314 1.822-4.764 4.036-4.321m11.829.967c.576.522.554.917-.086 1.513-.96.894-2.115.506-2.115-.71 0-1.165 1.284-1.633 2.201-.803m13.549 1.703c-.27 2.818-.485 3.084-1.947 2.418-1.281-.584-.9-2.158.832-3.437 1.196-.881 1.29-.796 1.115 1.019m-39.873.686c.213.213.644.888.958 1.5.315.612.85 1.485 1.191 1.94.926 1.236.817 1.905-.488 2.996-1.673 1.398-2.173 2.986-1.407 4.467.475.918-.095 1.013-.766.128-.684-.901-4.491-2.706-6.919-3.28-3.545-.837-3.351-.748-3.432-1.579-.217-2.222.627-2.747 2.984-1.857 3.363 1.271 5.535.461 6.113-2.278.462-2.184.999-2.804 1.766-2.037m-41.144.334c-.314.194-.307.275.059.64.328.329.481.356.709.127.414-.414-.256-1.084-.768-.767m-39.842 2.052c-.217.261-.231.442-.048.624.307.308.778.068.778-.397 0-.513-.392-.635-.73-.227m125.535.363c.507.271.598 1.18.162 1.616-.478.478-2.284.355-2.831-.192-1.397-1.397.665-2.497 2.669-1.424m-128.639.591c-.003.531.163 1.206.369 1.499.205.294.291.534.192.534-.1 0-.052.129.106.287.158.159.288.515.288.792s.099.607.221.732c.122.126.675 1.47 1.229 2.988 1.242 3.401 1.582 4.079 2.044 4.079.279 0 .223-.206-.246-.896-.716-1.053-.75-1.264-.204-1.264.32 0 .265-.146-.26-.694-.447-.467-.64-.892-.587-1.297.046-.348-.113-.814-.376-1.105-.343-.378-.372-.505-.119-.511.235-.005.198-.113-.125-.357-.644-.488-.37-.647.413-.24.693.359.882.137.297-.349-.194-.16-.334-.363-.312-.449.146-.577-.351-1.159-.901-1.054-.481.092-.594.017-.594-.395 0-.342.151-.507.465-.507.257 0 .533-.108.615-.24.082-.133-.099-.244-.406-.248-.536-.007-.539-.019-.094-.356.394-.298.419-.438.178-.968-.312-.684-1.417-.771-1.292-.102.036.194-.15.084-.415-.246l-.48-.6-.006.967m3.686.701c-.074.192-.067.457.015.59.232.375.853.023.853-.484 0-.532-.673-.614-.868-.106m2.086.273c-1.074.904-1.01 2.094.146 2.702 1.746.919 3.583-1.464 2.16-2.801-.732-.688-1.405-.659-2.306.099m46.388.611c.977.445 1.094 1.407.172 1.407-.538 0-1.57-1.08-1.358-1.422.202-.327.442-.324 1.186.015m-48.122.428c-.02.143-.047.394-.06.559a.725.725 0 0 1-.262.47c-.15.108-.123.284.076.48.394.389 1.059-.387.951-1.109-.075-.501-.646-.826-.705-.4m62.566.619c.607.926.704 3.416.173 4.435-.917 1.76-2.387 2.232-4.874 1.564-1.91-.512-3.079-.444-4.2.246-1.275.786-1.623.75-2.383-.246-.352-.462-.951-1.001-1.331-1.197-1.549-.801-1.06-2.046.892-2.271 1.127-.129 1.148-.148 1.518-1.316.474-1.499.694-1.56 1.855-.51 2.144 1.936 3.468 1.906 5.719-.133 1.453-1.315 2.057-1.447 2.631-.572m8.825 4.26c.079.297.146 1.488.148 2.647.004 2.624.306 3.369 1.945 4.803 3.176 2.779 5.005 2.666 7.436-.458 1.198-1.539 1.904-1.807 2.141-.814.161.678.689.716 4.852.355 3.044-.264 3.196.756.429 2.879-2.767 2.123-4.168 2.396-5.757 1.118-1.193-.958-1.195-.958-2.381.329-1.274 1.383-1.464 1.913-1.464 4.101 0 3.011-1.29 4.783-1.893 2.599-.13-.472-.672-1.329-1.203-1.906-.532-.576-1.039-1.351-1.129-1.722-.46-1.913-1.58-3.203-3.727-4.291-1.338-.677-1.431-1.04-.66-2.552.433-.85.468-1.118.24-1.878a7.687 7.687 0 0 1-.267-1.819c0-.835-.266-1.429-1.233-2.759-.532-.731-.08-1.172 1.199-1.172 1.02 0 1.199.073 1.324.54m-62.784 3.074c-2.83.689-3.457 1.697-2.076 3.335 1.171 1.39 2.159 1.579 3.943.756 3.539-1.634 1.988-5.03-1.867-4.091m-6.718.468c-.227.265-.413.655-.413.865 0 .289-.148.347-.6.233-.711-.178-.791.232-.25 1.278.192.372.402.968.467 1.325.137.756.985 2.276 2.461 4.411.577.834 1.27 1.951 1.542 2.483.458.899.515.935.819.523.18-.244.225-.479.102-.524-.124-.044-.164-.179-.089-.3.074-.12-.033-.219-.239-.219-.205 0-.374-.108-.374-.24s.112-.24.249-.24c.413 0 .108-2.353-.374-2.885-.545-.603-.726-.449-.335.285.267.5.258.527-.08.248-.32-.264-.397-.245-.492.12-.076.292-.121.227-.14-.202-.015-.349-.188-.696-.383-.771a.373.373 0 0 1-.227-.474c.079-.205-.064-.388-.364-.466-.308-.081-.493-.326-.493-.653 0-.288-.243-.731-.54-.983-.395-.335-.427-.419-.118-.312 1.048.365 2.092-1.247 1.318-2.034-.242-.246-.177-.275.337-.148 1.207.298 2.132-.737 1.354-1.515-.415-.415-1.075-.354-1.438.132-.448.6-1.213.626-1.025.035.188-.595-.154-.581-.675.028m60.727 1.725c.834.834-.364 2.385-1.265 1.637-.465-.386-.463-.722.007-1.392.417-.596.827-.676 1.258-.245m-24.906 2.733c-1.853.804-2.551 2.27-1.305 2.743 1.77.674 4.423-.1 4.423-1.289 0-1.527-1.421-2.189-3.118-1.454m27.898 4.247c.329.994.041 1.85-.621 1.85-.751 0-1.124-.438-1.124-1.32 0-1.406 1.321-1.807 1.745-.53m30.889.796c0 .183-.095.334-.211.334-.299 0-.773-.616-.603-.785.231-.232.814.09.814.451m14.484.4c.989.723-.837 2.009-2.529 1.782-1.581-.212-2.271-1.369-1.097-1.841.813-.327 3.15-.289 3.626.059m-9.04.546c.162.493-1.359 2.416-2.353 2.975l-1.01.567-.441-.544c-.842-1.04-.45-2.456.838-3.026.855-.378 2.839-.359 2.966.028m-68.306 2.022c-.831.831-.512 2.165.517 2.165.234 0 .6-.265.812-.588.759-1.159-.387-2.519-1.329-1.577m-18.48.603c-1.264 1.346-.704 4.436.876 4.832 1.476.371 3.432-1.674 3.09-3.23-.421-1.919-2.775-2.869-3.966-1.602m-4.881.042c-.232.232-.197 1.28.043 1.28.36 0 1.049-.921.886-1.185-.177-.286-.686-.338-.929-.095m30.914-.01c-1.564.395-2.755.888-3.12 1.29-1.327 1.467 1.747 3.113 3.807 2.038.378-.197 1.299-.358 2.046-.358 2.518 0 3.223-1.288 1.288-2.353-1-.551-3.043-.864-4.021-.617m100.003.537c.373.373-.059 1.238-.864 1.728-1.821 1.111-4.253-.019-2.824-1.312.886-.801 3.058-1.046 3.688-.416m-134.537.504c.168.865 1.858 3.368 2.274 3.368.13 0 .061-.27-.156-.6-.275-.42-.304-.599-.098-.599.21 0 .246-.258.126-.9-.214-1.142-.498-1.483-1.105-1.324-.3.078-.618-.044-.842-.325-.333-.417-.348-.388-.199.38m62.822 1.336c.202.203.434.77.516 1.26.082.491.303 1.449.49 2.129 1.203 4.374-1.005 7.233-3.037 3.931-.416-.676-1.18-1.466-1.791-1.853-1.755-1.11-1.681-1.433.93-4.095 1.746-1.779 2.247-2.017 2.892-1.372m-7.276.601c.709.38.621 1.431-.119 1.431-.974 0-1.605-.836-1.049-1.391.353-.353.569-.36 1.168-.04m38.701 1.068c.155.403-.508.843-1.269.843-.599 0-.623-.181-.098-.761.479-.529 1.18-.572 1.367-.082m-91.413 1.143c.072.23.925 1.688 1.896 3.239a212.115 212.115 0 0 1 2.806 4.607c.573.984 1.43 2.225 1.905 2.76.474.534 1.402 1.778 2.06 2.762 1.205 1.803 3.603 4.569 3.961 4.569.106 0-.068-.54-.386-1.2-.588-1.219-.977-1.593-.748-.72.069.264.027.42-.092.346-.12-.074-.218-.293-.218-.488 0-.194-.158-.414-.351-.488-.193-.074-.41-.321-.482-.55-.073-.228-.321-.623-.551-.877-.832-.918-2.872-3.595-3.165-4.151-.479-.913.319-2.369 1.226-2.236.57.083.727-.028 1.081-.771.601-1.261.117-1.695-.854-.766-.587.563-.824.643-1.476.5-.72-.158-.767-.131-.635.371.106.406.073.472-.133.266-.338-.337-.984-.366-.779-.034.082.132.087.24.011.24-.075 0-.414-.585-.752-1.299-.338-.715-.823-1.488-1.077-1.717-.261-.237-.465-.741-.469-1.161-.007-.741-.46-1.582-.852-1.582-.114 0-.623-.459-1.132-1.02-.508-.561-.865-.831-.794-.6m88.203 1.44c-.009 1.416-1.398 2.564-2.495 2.064-1.749-.797-.521-2.823 1.721-2.838.722-.006.779.052.774.774m-19.843 1.241c.188.188.406.884.484 1.547.079.663.311 1.53.516 1.926 1.537 2.973-1.49 5.135-4.046 2.89-1.2-1.053-1.258-1.666-.33-3.499 1.426-2.814 2.508-3.732 3.376-2.864m39.512.483c.602.726-.307 1.566-1.287 1.19-.378-.145-.525-1.069-.22-1.374.284-.284 1.213-.17 1.507.184m-55.656.442c0 1.24-1.629 2.237-2.014 1.234-.38-.991.201-1.78 1.311-1.78.571 0 .703.102.703.546m66.667-.207c.909.47 1.414 1.44 1.006 1.932-.436.525-4.24.521-4.992-.005-2.022-1.417 1.593-3.164 3.986-1.927m-18.672 2.309c.487.909-.284 2.083-1.181 1.798-.567-.18-1.563-1.691-1.346-2.043.295-.477 2.241-.289 2.527.245m12.609 1.528c.079.318.027.797-.116 1.064-.663 1.24-.308 2.29 1.465 4.331 1.325 1.527 1.222 3.146-.201 3.146-1.654 0-2.776-3.286-2.375-6.959.248-2.275.856-3.059 1.227-1.582m-67.908.791c-.111.29-.22.322-.42.122-.2-.2-.185-.373.059-.666.372-.449.606-.096.361.544m7.064-.152c0 .14-.257.599-.57 1.019-.314.421-.703 1.196-.865 1.724-1.03 3.352-4.523 4.921-8.589 3.857l-1.505-.394-.834.637c-.459.35-.834.722-.834.827 0 .314-1.981 1.672-2.439 1.672-.811 0-2.057-1.376-2.35-2.595-.894-3.726 2.755-8.073 5.152-6.139 1.884 1.52 2.353 1.775 3.263 1.775.689 0 1.133.191 1.793.77l.877.77.871-.541c.479-.297 1.627-.905 2.551-1.351.923-.446 1.996-1.143 2.384-1.549.729-.764 1.095-.925 1.095-.482m38.099 1.077c.998.699.564 3.328-.597 3.62-1.215.305-2.068-1.462-1.514-3.138.32-.971 1.144-1.159 2.111-.482m-77.031 1.085c-.56.326-.53.672.12 1.372l.54.581-.535.36c-.675.454-.341 1.267.522 1.267 1.274 0 2.416-2.659 1.524-3.551-.349-.349-1.593-.365-2.171-.029m63.537.62c-.496.436-.74.53-.812.313-.121-.36.603-.955 1.148-.944.256.005.151.204-.336.631m29.928 1.242c3.1 2.044.87 4.817-3.663 4.554-1.564-.09-1.758-.555-1.08-2.596.731-2.199 2.973-3.125 4.743-1.958m-43.915.944c.95.835.283 2.192-1.391 2.831-1.395.533-1.669.299-1.439-1.229.3-2.002 1.561-2.716 2.83-1.602m72.837 1.267c.094.811-.661 1.487-1.548 1.385-.885-.102-1.014-.782-.293-1.55.741-.789 1.74-.7 1.841.165m-120.567-.116c-.079.206-.043.477.08.6.303.303 1.165-.338.942-.7a.575.575 0 0 0-1.022.1m115.816 1.183c.336.405-.039 1.08-.6 1.08-.449 0-.913-.662-.754-1.077.179-.466.968-.468 1.354-.003m-12.681.24c0 .125-.116.267-.258.314-.142.047-.258-.094-.258-.314s.116-.361.258-.314c.142.047.258.189.258.314m-45.556 2.191c.431.431-1.352 2.488-2.156 2.488-.453 0-.555-.128-.555-.698 0-1.141 2.024-2.477 2.711-1.79m32.657 2.628c.573 1.494-.543 3.155-1.486 2.212-.445-.445-.342-1.579.192-2.112.577-.577 1.095-.617 1.294-.1m-51.453.324c.621 1.16.092 1.931-1.755 2.561-2.16.735-2.256.105-.292-1.915 1.173-1.207 1.664-1.362 2.047-.646m-27.315.579c-1.018 1.226-.368 2.796 1.158 2.796 1.039 0 1.451-.345 1.451-1.215 0-1.412-1.83-2.52-2.609-1.581m30.699 1.605c.56.3.6 1.13.09 1.858-.509.727-.791.67-1.172-.234-.538-1.281.056-2.173 1.082-1.624m16.061.842c0 1.095-1.753 2.329-2.759 1.943-.571-.219-.425-.771.448-1.696 1.034-1.098 2.311-1.233 2.311-.247m36.593-.13c.422.466.414.521-.263 1.841-.96 1.872-1.298 1.913-1.294.158.006-2.447.536-3.127 1.557-1.999m-63.588.239c-.081.132-.358.24-.614.24s-.466-.108-.466-.24.277-.239.614-.239c.349 0 .55.103.466.239m18.312 3.42c.072.624.023.66-.899.66-1.064 0-1.226-.287-.569-1.012.588-.65 1.375-.462 1.468.352m-9.123.936c.1.524-1.202 1.987-2.098 2.358-.743.308-2.819-.51-2.738-1.079.125-.88 4.684-2.085 4.836-1.279m-30.665 2.525c0 .248 1.787 1.998 2.041 1.998.229 0 .111-.148-.961-1.2-.594-.583-1.08-.942-1.08-.798m40.792 25.244c0 .116.432.32.96.454 1.136.288 1.293-.022.204-.401-.914-.319-1.164-.33-1.164-.053m4.846 1.728c.131.394 2.248 1.146 3.193 1.134.396-.005.531-.059.3-.119-.231-.06-.42-.21-.42-.332 0-.122-.169-.222-.374-.222-.206 0-.312-.101-.237-.224.076-.122-.214-.206-.645-.185-.431.02-1.04-.053-1.352-.162-.421-.148-.542-.119-.465.11m29.418 1.554c.06 1.257-.008 1.538-.506 2.075-.37.4-.633 1.051-.735 1.822-.207 1.556-1.029 2.233-1.966 1.619-.32-.21-.583-.271-.583-.136s-.189.244-.42.242c-.248-.003-.317-.076-.168-.18.138-.097.379-.613.535-1.147.678-2.325 2.666-5.906 3.233-5.825.482.069.547.231.61 1.53m-24.794-.148c.708 1.147 4.308 2.251 4.044 1.241-.174-.666-.556-.895-.81-.484-.16.259-.232.242-.357-.085-.122-.317-.259-.355-.608-.168-.35.188-.422.167-.322-.094.095-.246-.027-.305-.458-.222-.323.062-.828-.017-1.123-.175-.382-.204-.487-.208-.366-.013" fill-rule="evenodd"/></svg>
